<svg xmlns="http://www.w3.org/2000/svg" viewBox="0 0 1200 600" role="img" aria-labelledby="t11 d11"><title id="t11">Digitalna imovina</title><desc id="d11">GNK ASG urednička ilustracija: Digitalna imovina.</desc><defs><linearGradient id="g11" x1="0" y1="0" x2="1" y2="1"><stop stop-color="#07162d"/><stop offset="1" stop-color="#173e70"/></linearGradient></defs><rect width="1200" height="600" fill="url(#g11)"/><g><rect x="140" y="140" width="90" height="70" rx="8" fill="#d4af37" opacity="0.50"/><rect x="270" y="140" width="90" height="70" rx="8" fill="#d4af37" opacity="0.46"/><rect x="400" y="140" width="90" height="70" rx="8" fill="#d4af37" opacity="0.51"/><rect x="660" y="140" width="90" height="70" rx="8" fill="#d4af37" opacity="0.53"/><rect x="790" y="140" width="90" height="70" rx="8" fill="#d4af37" opacity="0.29"/><rect x="270" y="250" width="90" height="70" rx="8" fill="#d4af37" opacity="0.56"/><rect x="530" y="250" width="90" height="70" rx="8" fill="#d4af37" opacity="0.68"/><rect x="660" y="250" width="90" height="70" rx="8" fill="#d4af37" opacity="0.53"/><rect x="140" y="360" width="90" height="70" rx="8" fill="#d4af37" opacity="0.28"/><rect x="660" y="360" width="90" height="70" rx="8" fill="#d4af37" opacity="0.45"/><rect x="790" y="360" width="90" height="70" rx="8" fill="#d4af37" opacity="0.48"/><rect x="920" y="360" width="90" height="70" rx="8" fill="#d4af37" opacity="0.47"/><rect x="140" y="470" width="90" height="70" rx="8" fill="#d4af37" opacity="0.46"/><rect x="400" y="470" width="90" height="70" rx="8" fill="#d4af37" opacity="0.70"/><rect x="530" y="470" width="90" height="70" rx="8" fill="#d4af37" opacity="0.57"/></g><text x="60" y="60" fill="#f4d978" font-family="Arial" font-size="26" font-weight="700" letter-spacing="1">GNK ASG</text></svg>