<svg xmlns="http://www.w3.org/2000/svg" viewBox="0 0 1600 900" role="img" aria-labelledby="title desc"><title id="title">Otpornost se gradi prije krize — GNK ASG organski gradijent</title><desc id="desc">Kriza samo otkriva jesu li odgovornosti, zamjenski procesi i komunikacijski kanali bili pripremljeni prije poremećaja.</desc><defs><linearGradient id="bg" x1="0" y1="0" x2="1" y2="1"><stop stop-color="#170c17"/><stop offset=".48" stop-color="#6b1c5c"/><stop offset="1" stop-color="#3a0f2f"/></linearGradient><radialGradient id="g1"><stop stop-color="#e88ed0" stop-opacity=".95"/><stop offset="1" stop-color="#e88ed0" stop-opacity="0"/></radialGradient><radialGradient id="g2"><stop stop-color="#ffd8a8" stop-opacity=".9"/><stop offset="1" stop-color="#ffd8a8" stop-opacity="0"/></radialGradient><filter id="blur"><feGaussianBlur stdDeviation="40"/></filter></defs><rect width="1600" height="900" fill="url(#bg)"/><circle cx="474" cy="265" r="243" fill="url(#g1)" filter="url(#blur)"/><circle cx="1341" cy="537" r="362" fill="url(#g2)" filter="url(#blur)"/><path d="M204 568C385 204 821 314 1048 487s302 269 484 91" fill="none" stroke="#fff" stroke-opacity=".5" stroke-width="8"/><path d="M313 335C507 604 999 748 1357 267" fill="none" stroke="#ffd8a8" stroke-opacity=".45" stroke-width="5"/><g fill="none" stroke="#fff" stroke-opacity=".65"><ellipse cx="800" cy="450" rx="330" ry="120" transform="rotate(10 800 450)"/><ellipse cx="800" cy="450" rx="330" ry="120" transform="rotate(-51 800 450)"/><ellipse cx="800" cy="450" rx="330" ry="120" transform="rotate(76 800 450)"/></g><circle cx="800" cy="450" r="34" fill="#fff"/><circle cx="987" cy="343" r="16" fill="#e88ed0"/><circle cx="904" cy="471" r="18" fill="#ffd8a8"/></svg>