<svg xmlns="http://www.w3.org/2000/svg" viewBox="0 0 1600 900" role="img" aria-labelledby="title desc"><title id="title">Poslovni kontinuitet u hibridnom radnom modelu — GNK ASG organski gradijent</title><desc id="desc">Hibridni rad mijenja pretpostavke planova kontinuiteta poslovanja</desc><defs><linearGradient id="bg" x1="0" y1="0" x2="1" y2="1"><stop stop-color="#1a0e10"/><stop offset=".48" stop-color="#8c2d3a"/><stop offset="1" stop-color="#3a1a2e"/></linearGradient><radialGradient id="g1"><stop stop-color="#f28ca0" stop-opacity=".95"/><stop offset="1" stop-color="#f28ca0" stop-opacity="0"/></radialGradient><radialGradient id="g2"><stop stop-color="#ffd08a" stop-opacity=".9"/><stop offset="1" stop-color="#ffd08a" stop-opacity="0"/></radialGradient><radialGradient id="g3"><stop stop-color="#fff" stop-opacity=".5"/><stop offset="1" stop-color="#fff" stop-opacity="0"/></radialGradient><radialGradient id="vignette" cx=".5" cy=".5" r=".75"><stop offset=".6" stop-color="#000" stop-opacity="0"/><stop offset="1" stop-color="#000" stop-opacity=".38"/></radialGradient><filter id="blur"><feGaussianBlur stdDeviation="40"/></filter><filter id="blurSoft"><feGaussianBlur stdDeviation="70"/></filter></defs><rect width="1600" height="900" fill="url(#bg)"/><circle cx="256" cy="565" r="1.6" fill="#fff" opacity="0.22"/><circle cx="904" cy="253" r="1.7" fill="#fff" opacity="0.24"/><circle cx="875" cy="144" r="2.3" fill="#fff" opacity="0.37"/><circle cx="311" cy="508" r="1.7" fill="#fff" opacity="0.25"/><circle cx="413" cy="492" r="1.5" fill="#fff" opacity="0.21"/><circle cx="1005" cy="175" r="2.2" fill="#fff" opacity="0.35"/><circle cx="450" cy="232" r="2.2" fill="#fff" opacity="0.34"/><circle cx="256" cy="565" r="1.6" fill="#fff" opacity="0.22"/><circle cx="904" cy="253" r="1.7" fill="#fff" opacity="0.24"/><circle cx="875" cy="144" r="2.3" fill="#fff" opacity="0.37"/><circle cx="311" cy="508" r="1.7" fill="#fff" opacity="0.25"/><circle cx="413" cy="492" r="1.5" fill="#fff" opacity="0.21"/><circle cx="1005" cy="175" r="2.2" fill="#fff" opacity="0.35"/><circle cx="450" cy="232" r="2.2" fill="#fff" opacity="0.34"/><path d="M-50 712C385 554 729 750 1686 565" fill="none" stroke="#f28ca0" stroke-opacity=".22" stroke-width="140" filter="url(#blurSoft)"/><circle cx="372" cy="573" r="303" fill="url(#g1)" filter="url(#blur)"/><circle cx="1326" cy="363" r="310" fill="url(#g2)" filter="url(#blur)"/><circle cx="809" cy="789" r="163" fill="url(#g3)" filter="url(#blur)"/><path d="M213 540C490 285 817 245 1020 627s342 267 444 65" fill="none" stroke="#fff" stroke-opacity=".5" stroke-width="8"/><path d="M324 303C647 685 994 669 1341 407" fill="none" stroke="#ffd08a" stroke-opacity=".45" stroke-width="5"/><g fill="none" stroke="#fff" stroke-opacity=".65"><ellipse cx="800" cy="450" rx="330" ry="136" transform="rotate(23 800 450)"/><ellipse cx="800" cy="450" rx="330" ry="131" transform="rotate(-50 800 450)"/><ellipse cx="800" cy="450" rx="330" ry="128" transform="rotate(64 800 450)"/></g><circle cx="800" cy="450" r="34" fill="#fff"/><circle cx="748" cy="364" r="16" fill="#f28ca0"/><circle cx="1006" cy="485" r="18" fill="#ffd08a"/><rect width="1600" height="900" fill="url(#vignette)"/></svg>