<svg xmlns="http://www.w3.org/2000/svg" width="1200" height="630" viewBox="0 0 1200 630">
<rect width="1200" height="630" fill="#07162d"/>
<circle cx="930" cy="120" r="260" fill="#d4af37" opacity="0.12"/>
<circle cx="1020" cy="520" r="310" fill="#ffffff" opacity="0.04"/>
<rect x="720" y="118" width="350" height="350" rx="34" fill="#102e53" stroke="#d4af37" stroke-width="3" opacity="0.96"/>
<circle cx="790" cy="185" r="24" fill="#d4af37"/>
<circle cx="860" cy="185" r="24" fill="#ffffff" opacity="0.18"/>
<circle cx="930" cy="185" r="24" fill="#ffffff" opacity="0.18"/>
<rect x="780" y="254" width="230" height="16" rx="8" fill="#d4af37"/>
<rect x="780" y="304" width="185" height="16" rx="8" fill="#d4af37" opacity="0.86"/>
<rect x="780" y="354" width="215" height="16" rx="8" fill="#d4af37" opacity="0.72"/>
<path d="M180 468 C 292 338, 412 338, 528 468" fill="none" stroke="#d4af37" stroke-width="5"/>
<circle cx="180" cy="468" r="13" fill="#d4af37"/>
<circle cx="354" cy="390" r="13" fill="#d4af37"/>
<circle cx="528" cy="468" r="13" fill="#d4af37"/>
<text x="92" y="106" fill="#d4af37" font-family="Arial, Helvetica, sans-serif" font-size="22" font-weight="700" letter-spacing="4">GNK ASG INSIGHT</text>
<text x="92" y="180" fill="#ffffff" font-family="Arial, Helvetica, sans-serif" font-size="62" font-weight="800">Artificial Intelligence</text>
<text x="92" y="248" fill="#ffffff" font-family="Arial, Helvetica, sans-serif" font-size="62" font-weight="800">and Corporate</text>
<text x="92" y="316" fill="#d4af37" font-family="Arial, Helvetica, sans-serif" font-size="62" font-weight="800">Portal Transparency</text>
<text x="92" y="370" fill="#c7d3e4" font-family="Arial, Helvetica, sans-serif" font-size="24">GNK ASG d.o.o. · GNK DINAMO Ltd. · Nermin Sefić</text>
<text x="92" y="530" fill="#eef4fb" font-family="Arial, Helvetica, sans-serif" font-size="22">Public corporate data · Financial context · Documents · Market panels</text>
</svg>
