<svg xmlns="http://www.w3.org/2000/svg" viewBox="0 0 320 320" role="img" aria-label="ASG Gold Reference Asset"><defs><radialGradient id="bg" cx="34%" cy="23%" r="74%"><stop stop-color="#ffe79b"/><stop offset=".25" stop-color="#dcad43"/><stop offset=".55" stop-color="#a36b19"/><stop offset=".84" stop-color="#51310d"/><stop offset="1" stop-color="#d2a33c"/></radialGradient><linearGradient id="rim" x2="1" y2="1"><stop stop-color="#fff0ac"/><stop offset=".25" stop-color="#b97d22"/><stop offset=".5" stop-color="#f2cb66"/><stop offset=".85" stop-color="#7d4b10"/><stop offset="1" stop-color="#ecc25a"/></linearGradient><filter id="glow"><feGaussianBlur stdDeviation="7"/></filter></defs><circle cx="160" cy="160" r="145" fill="#d4af37" opacity=".25" filter="url(#glow)"/><circle cx="160" cy="160" r="143" fill="url(#rim)"/><circle cx="160" cy="160" r="135" fill="url(#bg)" stroke="#ffe493" stroke-width="2"/><circle cx="160" cy="160" r="119" fill="none" stroke="#f4cb65" stroke-width="2"/><circle cx="160" cy="160" r="111" fill="none" stroke="#6c410f" stroke-width="2"/><path d="M160 60 226 98v79c0 38-32 64-66 81-34-17-66-43-66-81V98z" fill="none" stroke="#f9d777" stroke-width="4"/><path d="M160 71v37m-35-6 35 22 35-22m-35 22v25m-44 37 27-62h9l27 62h-12l-7-17h-27l-7 17zm31-27h19l-10-24z" fill="#f8d877"/><text x="160" y="197" text-anchor="middle" font-family="Arial, sans-serif" font-weight="800" font-size="48" letter-spacing="-2" fill="#f8d877">ASG</text><text x="160" y="39" text-anchor="middle" font-family="Arial, sans-serif" font-weight="700" font-size="12" letter-spacing="4" fill="#ffe494">GOLD REFERENCE</text><text x="160" y="286" text-anchor="middle" font-family="Arial, sans-serif" font-weight="700" font-size="10" letter-spacing="2.2" fill="#ffe494">GNK DINAMO LTD.</text></svg>