<svg xmlns="http://www.w3.org/2000/svg" viewBox="0 0 1120 220" role="img" aria-labelledby="title description">
<title id="title">GNK ASG d.o.o.</title><desc id="description">Tehnološki orijentiran korporativni logotip GNK ASG d.o.o.</desc>
<defs>
 <linearGradient id="navy" x1="0" x2="1"><stop stop-color="#071a38"/><stop offset="1" stop-color="#153d72"/></linearGradient>
 <linearGradient id="blue" x1="0" x2="1"><stop stop-color="#123d91"/><stop offset="1" stop-color="#1671dc"/></linearGradient>
 <linearGradient id="nodeGold" x1="0" x2="1"><stop stop-color="#b4872a"/><stop offset=".5" stop-color="#e1bf62"/><stop offset="1" stop-color="#b4872a"/></linearGradient>
</defs>
<g transform="translate(18 17)">
 <path d="M92 6 171 52v26h-20V64L92 30 33 64v69l59 34 48-28v-31H93V88h72v63l-73 43-79-46V52z" fill="url(#navy)"/>
 <path d="M43 75 91 47l28 16-28 16-27 16v39l28 16 30-17h27v18l-57 33-49-29z" fill="url(#blue)" opacity=".97"/>
 <path d="M82 76h67l17-12h29M81 106h60l20 0h34M82 136h67l17 12h29" fill="none" stroke="#718096" stroke-width="5" stroke-linecap="round"/>
 <path d="M149 76h17l17-12h12" fill="none" stroke="url(#nodeGold)" stroke-width="5" stroke-linecap="round"/>
 <path d="M149 136h17l17 12h12" fill="none" stroke="#1762c7" stroke-width="5" stroke-linecap="round"/>
 <circle cx="199" cy="64" r="11" fill="url(#nodeGold)"/><circle cx="199" cy="106" r="10" fill="#a8afb8"/><circle cx="199" cy="148" r="11" fill="#1762c7"/>
</g>
<g transform="translate(250 53)">
 <text x="0" y="63" fill="url(#navy)" font-family="Arial, Helvetica, sans-serif" font-weight="750" font-size="78" letter-spacing="6">GNK</text>
 <text x="228" y="63" fill="url(#blue)" font-family="Arial, Helvetica, sans-serif" font-weight="750" font-size="78" letter-spacing="6">ASG</text>
 <text x="476" y="63" fill="#707782" font-family="Arial, Helvetica, sans-serif" font-weight="400" font-size="41" letter-spacing="3">d.o.o.</text>
 <text x="2" y="118" fill="#17375f" font-family="Arial, Helvetica, sans-serif" font-weight="400" font-size="22" letter-spacing="6">SPORT</text>
 <circle cx="136" cy="111" r="5" fill="#d4af37"/>
 <text x="157" y="118" fill="#17375f" font-family="Arial, Helvetica, sans-serif" font-weight="400" font-size="22" letter-spacing="6">TECHNOLOGY</text>
 <circle cx="371" cy="111" r="5" fill="#d4af37"/>
 <text x="391" y="118" fill="#17375f" font-family="Arial, Helvetica, sans-serif" font-weight="400" font-size="22" letter-spacing="6">FINANCE</text>
 <circle cx="548" cy="111" r="5" fill="#d4af37"/>
 <text x="568" y="118" fill="#17375f" font-family="Arial, Helvetica, sans-serif" font-weight="400" font-size="22" letter-spacing="6">GOVERNANCE</text>
</g>
</svg>